<?xml version="1.0" encoding="iso-8859-1"?>
<!-- Generator: Adobe Illustrator 19.0.0, SVG Export Plug-In . SVG Version: 6.00 Build 0)  -->
<svg version="1.1" id="Capa_1" xmlns="http://www.w3.org/2000/svg" xmlns:xlink="http://www.w3.org/1999/xlink" x="0px" y="0px"
	 viewBox="0 0 512 512" style="enable-background:new 0 0 512 512;" xml:space="preserve">
<g>
	<g>
		<path d="M256,246c-5.52,0-10,4.48-10,10c0,5.52,4.48,10,10,10s10-4.48,10-10C266,250.48,261.52,246,256,246z"/>
	</g>
</g>
<g>
	<g>
		<path d="M502,366h-56V80.143l63.071-63.071c3.905-3.905,3.905-10.237,0-14.143c-3.905-3.905-10.237-3.905-14.143,0L431.858,66H146
			V10c0-5.523-4.477-10-10-10H76c-5.523,0-10,4.477-10,10v56H10C4.477,66,0,70.477,0,76v60c0,5.523,4.477,10,10,10h56v285.857
			L2.929,494.929c-3.905,3.905-3.905,10.237,0,14.143C4.881,511.024,7.441,512,10,512s5.119-0.977,7.071-2.929L80.143,446H366v56
			c0,5.522,4.477,10,10,10h60c5.523,0,10-4.478,10-10v-56h56c5.523,0,10-4.477,10-10v-60C512,370.477,507.523,366,502,366z M86,20
			h40v46H86V20z M366,425.998H86V146h40v230c0,0.015,0.002,0.029,0.002,0.044c0.001,0.314,0.017,0.628,0.047,0.941
			c0.015,0.153,0.044,0.302,0.065,0.453c0.025,0.172,0.045,0.344,0.078,0.514c0.034,0.169,0.08,0.334,0.122,0.5
			c0.038,0.15,0.071,0.301,0.116,0.45c0.049,0.163,0.11,0.32,0.168,0.479c0.053,0.148,0.102,0.298,0.163,0.445
			c0.061,0.148,0.133,0.29,0.201,0.434c0.072,0.152,0.139,0.305,0.219,0.454c0.073,0.136,0.156,0.265,0.234,0.396
			c0.089,0.149,0.173,0.299,0.269,0.443c0.095,0.141,0.2,0.274,0.302,0.41c0.094,0.125,0.181,0.254,0.281,0.376
			c0.189,0.23,0.39,0.45,0.599,0.662c0.022,0.022,0.04,0.047,0.062,0.069c0.022,0.022,0.046,0.04,0.068,0.061
			c0.213,0.209,0.433,0.41,0.664,0.6c0.12,0.098,0.246,0.184,0.369,0.276c0.138,0.103,0.274,0.211,0.417,0.307
			c0.143,0.095,0.291,0.178,0.437,0.265c0.134,0.08,0.265,0.164,0.403,0.238c0.147,0.079,0.299,0.146,0.449,0.216
			c0.146,0.069,0.289,0.141,0.438,0.203c0.146,0.06,0.295,0.109,0.443,0.162c0.16,0.057,0.317,0.119,0.481,0.168
			c0.149,0.045,0.299,0.078,0.45,0.116c0.166,0.042,0.33,0.088,0.499,0.122c0.174,0.034,0.349,0.055,0.524,0.08
			c0.148,0.021,0.293,0.049,0.443,0.064c0.328,0.032,0.657,0.05,0.987,0.05h230V425.998z M366,366H160.143l74.659-74.659
			c3.905-3.905,3.905-10.237,0-14.143c-3.905-3.906-10.237-3.905-14.143,0L146,351.858V146h205.858l-74.659,74.659
			c-3.905,3.905-3.905,10.237,0,14.143c1.953,1.953,4.512,2.929,7.071,2.929s5.119-0.976,7.071-2.929L366,160.143V366z M426,492h-40
			V136c0-0.015-0.002-0.029-0.002-0.044c-0.001-0.314-0.017-0.628-0.047-0.941c-0.015-0.153-0.044-0.302-0.065-0.453
			c-0.025-0.172-0.045-0.344-0.078-0.514c-0.034-0.169-0.08-0.334-0.122-0.5c-0.038-0.15-0.071-0.301-0.116-0.45
			c-0.049-0.162-0.11-0.318-0.167-0.476c-0.054-0.15-0.103-0.301-0.164-0.448c-0.061-0.147-0.132-0.288-0.2-0.431
			c-0.072-0.153-0.14-0.306-0.22-0.456c-0.073-0.136-0.156-0.265-0.234-0.396c-0.089-0.149-0.173-0.299-0.269-0.443
			c-0.095-0.141-0.2-0.274-0.302-0.41c-0.094-0.125-0.181-0.254-0.281-0.376c-0.189-0.23-0.39-0.45-0.599-0.662
			c-0.022-0.022-0.04-0.047-0.062-0.069c-0.021-0.021-0.045-0.039-0.067-0.06c-0.213-0.21-0.434-0.411-0.665-0.601
			c-0.119-0.097-0.244-0.182-0.365-0.273c-0.14-0.104-0.276-0.212-0.421-0.309c-0.141-0.094-0.287-0.176-0.432-0.262
			c-0.136-0.081-0.269-0.167-0.409-0.242c-0.144-0.077-0.292-0.142-0.439-0.211c-0.149-0.071-0.296-0.145-0.449-0.209
			c-0.14-0.058-0.283-0.104-0.425-0.156c-0.166-0.06-0.33-0.123-0.5-0.175c-0.139-0.042-0.279-0.072-0.419-0.108
			c-0.176-0.045-0.35-0.094-0.53-0.129c-0.156-0.031-0.314-0.049-0.471-0.072c-0.166-0.025-0.329-0.055-0.497-0.072
			c-0.267-0.026-0.535-0.036-0.804-0.041C376.118,126.008,376.06,126,376,126H20V86h406V492z M492,426h-46v-40h46V426z"/>
	</g>
</g>
<g>
</g>
<g>
</g>
<g>
</g>
<g>
</g>
<g>
</g>
<g>
</g>
<g>
</g>
<g>
</g>
<g>
</g>
<g>
</g>
<g>
</g>
<g>
</g>
<g>
</g>
<g>
</g>
<g>
</g>
</svg>
